<svg width="271" height="250" viewBox="0 0 271 250" fill="none" xmlns="http://www.w3.org/2000/svg">
<path d="M28.0534 206.926L4.83817 207.075C4.83817 207.075 11.6353 249.499 17.3102 249.489C22.9851 249.48 28.3272 249.471 28.3272 249.471L28.0534 206.926Z" fill="#FFBA96"/>
<path d="M157.797 205.977C157.114 203.559 154.87 201.998 152.357 201.998H134.979C131.665 201.998 128.979 204.685 128.979 207.998V226.391C128.979 228.901 130.544 231.147 132.963 231.815C139.14 233.521 150.902 235.812 156.539 230.567C162.261 225.243 159.637 212.492 157.797 205.977Z" fill="#FFBA96"/>
<rect width="101.957" height="42.9294" transform="matrix(-1 0 0 1 129.766 206.598)" fill="#33BCAC"/>
<rect width="36" height="66" transform="matrix(-1 0 0 1 69.2175 61)" fill="#151515"/>
<rect width="37" height="69" transform="matrix(-1 0 0 1 123.217 62)" fill="#151515"/>
<path d="M130.926 107.824C106.581 100.239 59.5336 98.775 23.2101 107.824C-13.1135 116.873 4.05341 207.365 4.05341 207.365H170.151C170.151 207.365 155.272 115.409 130.926 107.824Z" fill="#33BCAC"/>
<rect width="1.53319" height="102.724" rx="0.766597" transform="matrix(-1 0 0 1 129.766 146.803)" fill="#519799"/>
<rect width="1.53319" height="103.874" rx="0.766597" transform="matrix(-1 0 0 1 28.5749 145.653)" fill="#519799"/>
<path d="M89.4323 93.9082H64.9012V106.94C74.4812 111.102 79.8523 111.108 89.4323 106.94V93.9082Z" fill="#EFA37A"/>
<circle cx="42.1628" cy="42.1628" r="42.1628" transform="matrix(-1 0 0 1 119.331 19.9316)" fill="#FFBA96"/>
<rect width="57.878" height="79.726" transform="matrix(-0.997874 -0.065167 -0.065167 0.997874 201.444 154.408)" fill="#212121"/>
<rect width="20.5208" height="5.76408" transform="matrix(-0.997874 -0.065167 -0.065167 0.997874 183.809 148.524)" fill="#C9C9C9"/>
<path d="M108.216 12.6491C94.2715 10.7433 73.336 22.423 73.336 22.423C73.336 22.423 75.4441 41.5879 76.594 46.3792C77.7439 51.1704 81.7685 60.4423 84.26 63.6276C86.7514 66.8129 133.027 64.1227 133.219 60C133.41 55.8773 122.161 14.5549 108.216 12.6491Z" fill="#1B1B1B"/>
<path d="M44.7175 14.9999C58.1639 16.3044 77.086 26.2556 77.086 26.2556L64.1822 63.5635C16.4465 68.6428 22.6121 62.1409 23.5567 57.6366C24.5013 53.1322 31.271 13.6954 44.7175 14.9999Z" fill="#1B1B1B"/>
<path d="M39.7175 17.4079C39.7175 25.7152 71.9544 24.5062 84.7662 24.5062C97.5781 24.5062 113.964 25.7152 113.964 17.4079C113.964 9.10053 94.3784 0 81.5665 0C68.7547 0 39.7175 9.10053 39.7175 17.4079Z" fill="#1B1B1B"/>
<path d="M75.4735 131.459C76.2576 132.707 78.0765 132.707 78.8606 131.459L92.8322 109.218C93.8469 107.603 92.2189 105.552 90.3979 106.12C86.1037 107.459 80.367 109.004 77.1671 108.857C73.9035 108.707 68.0014 107.149 63.682 105.887C61.8843 105.362 60.3383 107.366 61.3346 108.952L75.4735 131.459Z" fill="#D9D9D9"/>
<circle cx="50.0204" cy="50.0204" r="50.0204" transform="matrix(-1 0 0 1 270.053 23.7644)" fill="#7CB0FF"/>
<path d="M196.649 135.739L215.251 120.732L192.954 112.126L196.649 135.739Z" fill="#7CB0FF"/>
<rect width="62.8609" height="3.44969" rx="1.72484" transform="matrix(-1 0 0 1 250.889 60.9446)" fill="white"/>
<rect width="62.8609" height="3.44969" rx="1.72484" transform="matrix(-1 0 0 1 250.889 73.5933)" fill="white"/>
<rect width="62.8609" height="3.44969" rx="1.72484" transform="matrix(-1 0 0 1 251.272 85.8589)" fill="white"/>
</svg>
