<svg width="491" height="740" viewBox="0 0 491 740" fill="none" xmlns="http://www.w3.org/2000/svg">
<path d="M75.1174 423.1L86.2791 307.165C86.7247 302.536 85.304 298.612 83.1058 298.401L47.2845 294.952C45.0863 294.74 42.9431 298.321 42.4975 302.949L31.3359 418.884C30.8902 423.513 32.311 427.437 34.5091 427.648L70.3304 431.097C72.5286 431.309 74.6718 427.728 75.1174 423.1Z" fill="#9BFF96"/>
<path d="M70.0113 433.268C70.5257 431.309 69.6374 429.28 67.8761 428.392L37.14 412.891C35.0686 411.847 32.5193 412.726 31.4452 414.856L13.9443 449.559C12.8702 451.689 13.6786 454.261 15.7499 455.306L53.9014 474.546C56.2966 475.754 59.2265 474.375 59.9258 471.71L70.0113 433.268Z" fill="#9BFF96"/>
<path d="M63.9536 426.013L73.672 426.038C76.3557 426.045 78.5255 428.227 78.5185 430.91L78.4502 456.826C78.4431 459.51 76.2619 461.68 73.5782 461.672L63.8598 461.647C61.1762 461.64 59.0063 459.459 59.0134 456.775L59.0817 430.859C59.0887 428.176 61.27 426.006 63.9536 426.013Z" fill="#9BFF96"/>
<path d="M139.069 422.817H95.9437C92.4864 422.817 89.6836 425.62 89.6836 429.078V657.225C89.6836 660.682 92.4864 663.485 95.9437 663.485H139.069C142.527 663.485 145.329 660.682 145.329 657.225V429.078C145.329 425.62 142.527 422.817 139.069 422.817Z" fill="#209184"/>
<path d="M247.579 422.817H203.063C199.989 422.817 197.498 425.309 197.498 428.382V657.921C197.498 660.994 199.989 663.485 203.063 663.485H247.579C250.652 663.485 253.144 660.994 253.144 657.921V428.382C253.144 425.309 250.652 422.817 247.579 422.817Z" fill="#209184"/>
<path d="M247.579 655.138H203.063C199.989 655.138 197.498 657.63 197.498 660.703V680.874C197.498 683.948 199.989 686.439 203.063 686.439H247.579C250.652 686.439 253.144 683.948 253.144 680.874V660.703C253.144 657.63 250.652 655.138 247.579 655.138Z" fill="black"/>
<path d="M139.765 655.138H95.2482C92.1749 655.138 89.6836 657.63 89.6836 660.703V680.874C89.6836 683.948 92.1749 686.439 95.2482 686.439H139.765C142.838 686.439 145.329 683.948 145.329 680.874V660.703C145.329 657.63 142.838 655.138 139.765 655.138Z" fill="black"/>
<path d="M177.409 237.1C227.349 237.1 267.833 196.615 267.833 146.675C267.833 96.7354 227.349 56.2511 177.409 56.2511C127.469 56.2511 86.9844 96.7354 86.9844 146.675C86.9844 196.615 127.469 237.1 177.409 237.1Z" fill="#9BFF96"/>
<path d="M167.317 128.993C153.736 125.239 149.037 125.817 137.76 130.144" stroke="black" stroke-width="4" stroke-linecap="round"/>
<path d="M224.397 128.017C210.859 123.528 206.147 124.316 194.799 129.873" stroke="black" stroke-width="4" stroke-linecap="round"/>
<path d="M146.107 160.587C150.716 160.587 154.453 155.604 154.453 149.458C154.453 143.311 150.716 138.329 146.107 138.329C141.497 138.329 137.76 143.311 137.76 149.458C137.76 155.604 141.497 160.587 146.107 160.587Z" fill="black"/>
<path d="M212.185 161.283C216.795 161.283 220.532 156.456 220.532 150.501C220.532 144.547 216.795 139.72 212.185 139.72C207.575 139.72 203.838 144.547 203.838 150.501C203.838 156.456 207.575 161.283 212.185 161.283Z" fill="black"/>
<path d="M178.104 165.26H180.886C183.683 165.26 185.95 167.528 185.95 170.325V180.758C185.95 183.555 183.683 185.823 180.886 185.823H178.104C175.306 185.823 173.039 183.555 173.039 180.758V170.325C173.039 167.615 175.167 165.403 177.843 165.267L178.104 165.26Z" fill="#1D3F1A" stroke="#0A3016"/>
<path d="M144.02 192.583C170.271 209.194 184.592 209.265 209.751 192.583" stroke="#13320B" stroke-width="4" stroke-linecap="round"/>
<path d="M230.885 245.447H111.942C99.649 245.447 89.6836 255.412 89.6836 267.705V450.64C89.6836 462.933 99.649 472.899 111.942 472.899H230.885C243.178 472.899 253.143 462.933 253.143 450.64V267.705C253.143 255.412 243.178 245.447 230.885 245.447Z" fill="white"/>
<path d="M141.157 675.31H75.773C73.4681 675.31 71.5996 677.178 71.5996 679.483V735.129C71.5996 737.434 73.4681 739.302 75.773 739.302H141.157C143.462 739.302 145.33 737.434 145.33 735.129V679.483C145.33 677.178 143.462 675.31 141.157 675.31Z" fill="black"/>
<path d="M258.012 675.31H192.629C190.324 675.31 188.455 677.178 188.455 679.483V735.129C188.455 737.434 190.324 739.302 192.629 739.302H258.012C260.317 739.302 262.186 737.434 262.186 735.129V679.483C262.186 677.178 260.317 675.31 258.012 675.31Z" fill="black"/>
<path d="M253.145 646.792H198.195C195.89 646.792 194.021 648.66 194.021 650.965V659.312C194.021 661.617 195.89 663.485 198.195 663.485H253.145C255.45 663.485 257.319 661.617 257.319 659.312V650.965C257.319 648.66 255.45 646.792 253.145 646.792Z" fill="black"/>
<path d="M144.633 646.792H89.6832C87.3783 646.792 85.5098 648.66 85.5098 650.965V659.312C85.5098 661.617 87.3783 663.485 89.6832 663.485H144.633C146.938 663.485 148.807 661.617 148.807 659.312V650.965C148.807 648.66 146.938 646.792 144.633 646.792Z" fill="black"/>
<path d="M95.8168 306.218L108.674 255.895C109.187 253.886 107.492 251.717 104.886 251.052L62.4328 240.205C59.8277 239.54 57.2996 240.629 56.7863 242.638L43.929 292.961C43.4157 294.971 45.1115 297.139 47.7167 297.804L90.1703 308.651C92.7754 309.317 95.3035 308.228 95.8168 306.218Z" fill="#33BCAC"/>
<path d="M91.6421 296.055L40.1724 293.278C37.3298 293.124 34.9105 295.129 34.7688 297.755L34.2557 307.266C34.114 309.892 36.3035 312.145 39.1461 312.298L90.6158 315.076C93.4584 315.229 95.8777 313.224 96.0194 310.598L96.5325 301.088C96.6742 298.462 94.4847 296.208 91.6421 296.055Z" fill="#33BCAC"/>
<path d="M264.813 319.777L224.886 282.384C223.292 280.892 223.436 278.148 225.208 276.256L254.081 245.426C255.853 243.534 258.581 243.21 260.175 244.703L300.102 282.095C301.696 283.588 301.552 286.332 299.781 288.224L270.908 319.054C269.136 320.946 266.408 321.269 264.813 319.777Z" fill="#33BCAC"/>
<path d="M261.596 313.666L300.028 282.171C302.15 280.432 305.329 280.8 307.127 282.994L313.638 290.939C315.436 293.133 315.173 296.322 313.05 298.061L274.619 329.556C272.496 331.296 269.318 330.927 267.52 328.733L261.009 320.788C259.211 318.594 259.474 315.405 261.596 313.666Z" fill="#33BCAC"/>
<path d="M83.4043 260.09C83.9642 243.098 109.103 230.136 139.552 231.139L174.063 268.588L208.838 233.422C238.311 234.393 262.145 248.128 262.947 264.602L262.947 466.5C263.802 484.072 277.936 497.536 246.5 496.5L90.0002 503C59.5514 501.997 82.8445 474.992 83.4044 458L83.4043 260.09Z" fill="#33BCAC"/>
<path d="M95 256.577C95 255.652 95.634 254.848 96.5333 254.632L119.528 249.113C119.838 249.039 120.161 249.04 120.471 249.115L142.976 254.627C143.871 254.846 144.5 255.648 144.5 256.569V276.024C144.5 277.115 143.615 278 142.524 278C141.414 278 140.522 277.086 140.549 275.976L140.961 259.119C140.984 258.175 140.343 257.344 139.424 257.125L120.435 252.604C120.149 252.535 119.85 252.531 119.562 252.592L100.09 256.667C99.1637 256.861 98.5 257.678 98.5 258.625V276.25C98.5 277.216 97.7165 278 96.75 278C95.7835 278 95 277.216 95 276.25V256.577Z" fill="black"/>
<rect x="118" y="233" width="3" height="18" fill="black"/>
<path d="M142.881 276.754C142.881 276.338 142.543 276 142.127 276C141.714 276 141.377 276.333 141.373 276.746L141.088 304.405C141.081 305.087 140.727 305.719 140.148 306.08L134.66 309.513C134.211 309.794 134.032 310.359 134.238 310.846C134.495 311.453 135.232 311.69 135.794 311.345L141.926 307.585C142.519 307.222 142.881 306.576 142.881 305.88V276.754Z" fill="#D9D9D9"/>
<path d="M96 276.94C96 276.421 96.421 276 96.9404 276C97.4598 276 97.8809 276.421 97.8809 276.94V304.368C97.8809 305.07 98.2495 305.721 98.8519 306.083L104.557 309.506C105.028 309.788 105.215 310.377 104.994 310.879C104.731 311.476 104.006 311.71 103.444 311.379L96.986 307.58C96.3751 307.221 96 306.565 96 305.856V276.94Z" fill="#D9D9D9"/>
<rect x="229" y="237" width="3" height="61" fill="black"/>
<circle cx="230.5" cy="309.5" r="11.5" fill="#D9D9D9" stroke="#989898" stroke-width="2"/>
<path d="M376.029 350.616L371.903 342.205C370.763 339.883 367.957 338.924 365.634 340.063L343.205 351.065C340.883 352.205 339.923 355.011 341.063 357.334L345.189 365.745C346.328 368.067 349.134 369.027 351.457 367.887L373.886 356.885C376.209 355.745 377.168 352.939 376.029 350.616Z" fill="#9BFF96"/>
<path d="M282.5 94.6111L289 127L286 189L266.5 210.5L250 238L212 310L219.999 238L236.999 189L239.997 137.611L197.998 94.6111L171.5 20.0001L230 37.5001L250 50L266.5 73L282.5 94.6111Z" fill="#070707"/>
<path d="M113.5 52.5L96.0006 74L81.9999 103.497L77.5003 174L89.5003 195L101.001 215L130.001 262L113.501 171L133.018 127.862L169.729 103.497L199.999 93.6111L173.501 20L156.5 23.5L123.501 39.5L113.5 52.5Z" fill="#070707"/>
<rect x="270" y="233" width="118" height="162" rx="4" fill="#242323"/>
<rect x="309" y="231" width="48" height="5" fill="#D9D9D9"/>
<path d="M394.187 389.631C394.277 391.584 392.995 393.336 391.107 393.842L358.152 402.676C355.931 403.271 353.648 401.954 353.053 399.733L343.352 363.544C342.757 361.323 344.075 359.041 346.295 358.445L387.201 347.48C389.769 346.792 392.316 348.655 392.438 351.311L394.187 389.631Z" fill="#9BFF96"/>
<path d="M376.939 174.712L377.065 187.322L391.56 197.711L362.001 223.969L376.939 174.712Z" fill="#7CB0FF"/>
<circle cx="426.5" cy="148.5" r="64.5" fill="#7CB0FF"/>
<rect x="384" y="128" width="96" height="4" rx="2" fill="white"/>
<rect x="384" y="139" width="96" height="4" rx="2" fill="white"/>
<rect x="384" y="150" width="96" height="4" rx="2" fill="white"/>
<rect x="385" y="161" width="42" height="4" rx="2" fill="white"/>
</svg>
