<svg width="274" height="515" viewBox="0 0 274 515" fill="none" xmlns="http://www.w3.org/2000/svg">
<path d="M46.0463 216.024C46.4185 224.827 49.7001 224.487 60.8053 224.017C71.9104 223.547 80.6112 216.031 80.239 207.229C79.8668 198.426 61.098 189.79 49.9928 190.26C38.8877 190.729 45.6741 207.222 46.0463 216.024Z" fill="#FFBA96"/>
<path d="M61.1244 207.351C60.9145 202.384 56.7184 198.529 51.7523 198.739L35.08 199.444C30.1139 199.654 26.2583 203.85 26.4683 208.816L26.7863 216.338C26.9934 221.236 31.0897 225.071 35.9909 224.941C43.6371 224.739 48.945 224.547 53.2728 224.311C58.0644 224.05 61.6562 219.926 61.4534 215.132L61.1244 207.351Z" fill="#FFBA96"/>
<ellipse cx="17.5949" cy="20.6112" rx="17.5949" ry="20.6112" transform="matrix(-0.999107 0.0422447 0.0422447 0.999107 272.191 284.516)" fill="#FFBA96"/>
<path d="M70.4555 190.671C70.4555 190.671 142.037 184.926 150.118 187.474C158.2 190.022 153.577 217.975 143.533 222.208C133.49 226.441 71.8366 225.086 71.8366 225.086L70.4555 190.671Z" fill="#EEEEEE"/>
<path d="M154.399 461.745L124.765 462.998L126.313 499.606C126.313 499.606 151.575 502.064 153.184 498.47C154.793 494.876 154.399 461.745 154.399 461.745Z" fill="#0A0909"/>
<path d="M151.159 488.053C150.853 486.768 149.902 485.742 148.647 485.329C135.966 481.158 128.289 481.771 116.236 487.615C115.159 488.137 114.388 489.127 114.169 490.304C113.338 494.772 111.692 505.781 115.692 505.511C120.707 505.171 147.643 505.38 151.655 505.108C154.847 504.892 152.324 492.933 151.159 488.053Z" fill="#0A0909"/>
<path d="M161.594 285.914L126.394 284.643C126.394 284.643 120.669 443.199 120.116 458.527C119.562 473.855 150.316 474.965 155.316 459.798C160.316 444.63 161.594 285.914 161.594 285.914Z" fill="#1F1D1D"/>
<path d="M123.543 187.172L117.731 187.418C117.731 187.418 98.5871 224.26 95.6109 224.886C92.6347 225.512 119.476 225.107 119.476 225.107L123.543 187.172Z" fill="#D9D9D9"/>
<rect width="29.66" height="35.1898" transform="matrix(-0.990283 0.139064 0.139064 0.990283 203.779 462.349)" fill="#0A0909"/>
<path d="M208.715 284.083L152.772 286.448C152.772 286.448 167.914 449.925 167.54 466.04C167.167 482.155 199.441 482.903 204.48 466.896C209.519 450.889 208.715 284.083 208.715 284.083Z" fill="#2C2C2C"/>
<path d="M207.08 490.713C206.734 489.566 205.867 488.656 204.742 488.245C192.222 483.679 184.614 484.067 172.522 489.617C171.436 490.116 170.645 491.088 170.4 492.258C169.471 496.702 167.576 507.667 171.532 507.5C176.491 507.29 204.51 507.254 208.477 507.086C211.669 506.951 208.459 495.277 207.08 490.713Z" fill="#0A0909"/>
<circle cx="43.2332" cy="43.2332" r="43.2332" transform="matrix(-0.999107 0.0422447 0.0422447 0.999107 210.787 10.3723)" fill="#FFBA96"/>
<path d="M215.624 100.799C202.716 65.3962 132.49 97.8408 129.524 121.309C127.461 137.625 119.214 220.127 114.379 268.898C112.433 288.525 127.558 305.632 147.274 306.17L189.103 307.311C207.802 307.821 223.377 293.135 223.702 274.432C224.604 222.465 224.91 126.27 215.624 100.799Z" fill="#EEEEEE"/>
<path d="M157.621 93.6479C157.621 93.6479 151.477 95.0853 149.563 97.4084C147.649 99.7314 147.046 103.246 147.046 103.246L147.304 305.818C147.304 305.818 148.515 307.221 149.622 305.375C150.729 303.528 157.621 93.6479 157.621 93.6479Z" fill="#A5B0C8"/>
<path d="M188.244 6.79684L156.453 4.61892L131.16 19.2737L147.501 30.9102C147.501 30.9102 153.734 41.4646 162.414 50.4061C171.094 59.3476 206.738 81.2374 210.763 75.2809C214.788 69.3244 224.125 40.2494 217.171 30.4802C210.217 20.711 188.244 6.79684 188.244 6.79684Z" fill="#1C1C1C"/>
<path d="M131.16 19.2741C131.16 19.2741 125.533 22.6524 123.998 28.0005C122.463 33.3486 125.745 57.5099 125.996 57.4993C126.247 57.4886 141.93 24.1019 141.93 24.1019L131.16 19.2741Z" fill="#1C1C1C"/>
<path d="M213.294 95.694C191.643 73.8742 180.463 92.4712 177.275 106.578C174.643 118.227 216.188 242.445 230.746 285.379C233.508 293.526 242.203 297.909 250.437 295.421L257.601 293.256C265.572 290.848 270.371 282.807 268.544 274.683C259.178 233.026 231.117 113.655 213.294 95.694Z" fill="#EEEEEE"/>
<path d="M5.46682 140.566C6.35235 161.509 24.048 177.769 44.9911 176.884C65.9342 175.998 82.1941 158.302 81.3086 137.359C80.423 116.416 62.7274 100.156 41.7843 101.042C20.8412 101.927 4.5813 119.623 5.46682 140.566ZM73.6917 137.681C74.3994 154.418 61.4055 168.559 44.669 169.267C27.9326 169.974 13.7913 156.981 13.0836 140.244C12.376 123.508 25.3699 109.366 42.1064 108.659C58.8428 107.951 72.9841 120.945 73.6917 137.681Z" fill="url(#paint0_linear_694_428)"/>
<rect width="5.52983" height="31.6708" rx="2.76492" transform="matrix(-0.999107 0.0422447 0.0422447 0.999107 46.7345 116.934)" fill="#8BAFFF"/>
<rect width="5.49754" height="20.5033" rx="2.74877" transform="matrix(-0.317584 0.94823 0.94823 0.317584 28.4532 137.833)" fill="#8BAFFF"/>
<rect width="13.0705" height="6.53525" transform="matrix(-0.999107 0.0422447 0.0422447 0.999107 48.8536 95.7114)" fill="#8BAFFF"/>
<rect width="1.50814" height="85.0725" rx="0.754068" transform="matrix(-0.966869 0.255274 0.255274 0.966869 192.045 143.399)" fill="#D9D9D9"/>
<rect width="3.40165" height="25.8624" rx="1.70083" transform="matrix(-0.993762 -0.111524 -0.111524 0.993762 170.1 88.8176)" fill="#1F1F1F"/>
<rect width="1.9254" height="28.0167" rx="0.962699" transform="matrix(-0.997286 -0.0736215 -0.0736215 0.997286 143.461 103.107)" fill="#1F1F1F"/>
<rect width="1.37316" height="20.1093" rx="0.68658" transform="matrix(-0.960546 -0.27812 -0.27812 0.960546 171.994 128.196)" fill="#949494"/>
<rect width="1.38811" height="20.1099" rx="0.694057" transform="matrix(-0.994803 -0.101821 -0.100676 0.994919 156.703 125.585)" fill="#949494"/>
<rect width="1.43738" height="8.42266" rx="0.718692" transform="matrix(-0.88798 0.459882 0.469084 0.883154 154.438 144.057)" fill="#949494"/>
<rect width="1.4273" height="8.39009" rx="0.71365" transform="matrix(-0.678643 -0.734468 -0.734468 0.678643 166.76 147.182)" fill="#949494"/>
<rect width="3.40165" height="20.1093" rx="1.70083" transform="matrix(-0.936062 0.351835 0.351835 0.936062 166.688 109.868)" fill="#1F1F1F"/>
<rect width="3.40165" height="20.1093" rx="1.70083" transform="matrix(-0.828403 -0.560132 -0.560132 0.828403 167.781 111.847)" fill="#1F1F1F"/>
<circle cx="5.27847" cy="5.27847" r="5.27847" transform="matrix(-0.999107 0.0422447 0.0422447 0.999107 144.875 129.407)" fill="#686868"/>
<circle cx="4.02169" cy="4.02169" r="4.02169" transform="matrix(-0.999107 0.0422447 0.0422447 0.999107 143.41 130.476)" fill="#D9D9D9"/>
<defs>
<linearGradient id="paint0_linear_694_428" x1="41.7843" y1="101.042" x2="44.9911" y2="176.884" gradientUnits="userSpaceOnUse">
<stop stop-color="#8BAFFF"/>
<stop offset="1" stop-color="#48CDFE"/>
</linearGradient>
</defs>
</svg>
